/* XPM */
const static char*icon_48x48[] = {
/* columns rows colors chars-per-pixel */
"48 48 140 2 ",
"   c #020202",
".  c #050A0A",
"X  c #0D0C0C",
"o  c #100F0E",
"O  c #12120F",
"+  c #020F10",
"@  c #001113",
"#  c #0C1312",
"$  c #0F1817",
"%  c #01191B",
"&  c #121211",
"*  c #1A1717",
"=  c #181815",
"-  c #121C1B",
";  c #1A1919",
":  c #15201F",
">  c #1F201C",
",  c #002225",
"<  c #00262A",
"1  c #00292D",
"2  c #162222",
"3  c #1B2423",
"4  c #1A2827",
"5  c #002E32",
"6  c #003237",
"7  c #003438",
"8  c #00383E",
"9  c gray13",
"0  c #2B2726",
"q  c #282929",
"w  c #21312F",
"e  c #213332",
"r  c #253836",
"t  c #283D3B",
"y  c #353534",
"u  c #393635",
"i  c #3B3837",
"p  c gray22",
"a  c #443F3D",
"s  c #48473E",
"d  c #003D43",
"f  c #004146",
"g  c #00454C",
"h  c #004D53",
"j  c #005057",
"k  c #00565E",
"l  c #304845",
"z  c #37524F",
"x  c #375350",
"c  c #395653",
"v  c #005D65",
"b  c #00636D",
"n  c #006770",
"m  c #006D77",
"M  c #454646",
"N  c #4C4441",
"B  c #5B594E",
"V  c #525150",
"C  c #5C5452",
"Z  c #5F5A54",
"A  c #585A5B",
"S  c #645D5B",
"D  c #42635F",
"F  c #67605F",
"G  c #446763",
"H  c #466965",
"J  c #486C68",
"K  c #4C726E",
"L  c #527C77",
"P  c #666260",
"I  c #6C6C6C",
"U  c #747263",
"Y  c #7C726F",
"T  c #7F7C6C",
"R  c #767372",
"E  c #8D7C77",
"W  c #857F7D",
"Q  c #57837F",
"!  c #84807E",
"~  c #8D817D",
"^  c #98857F",
"/  c #5A8883",
"(  c #5D8D88",
")  c #61928C",
"_  c #669A94",
"`  c #689D97",
"'  c #6DA59F",
"]  c #6FA7A1",
"[  c #72ACA5",
"{  c #77B3AD",
"}  c #78B4AE",
"|  c #7DBCB6",
" . c #7FBFB8",
".. c #8D8B8B",
"X. c #968782",
"o. c #988680",
"O. c #958985",
"+. c #938C8A",
"@. c #988D8A",
"#. c #9A9783",
"$. c #96908E",
"%. c #8F9293",
"&. c #929393",
"*. c #A19591",
"=. c #AAA6A5",
"-. c #B6B6B6",
";. c #C4B0A9",
":. c #CCB5AD",
">. c #C8BAB6",
",. c #83C5BE",
"<. c #DCD7BC",
"1. c #DFCAC3",
"2. c #DECFC9",
"3. c #D9D5D4",
"4. c #E1DDC0",
"5. c #E3D3CE",
"6. c #ECD6CE",
"7. c #F3D8CF",
"8. c #E2D6D2",
"9. c #E4D9D6",
"0. c #ECDAD5",
"q. c #E5DEDB",
"w. c #EFDFD9",
"e. c #F2DDD6",
"r. c #FEDFD5",
"t. c #E6E1C4",
"y. c #FDE0D6",
"u. c #F7E5DF",
"i. c #FAE4DD",
"p. c #E6E3E2",
"a. c #E8E5E3",
"s. c #EEEEEE",
"d. c #F5E6E1",
"f. c #F8E7E1",
"g. c #F6E9E5",
"h. c #F3EDEB",
"j. c #F2F0EF",
"k. c #EFF3F5",
"l. c #F1F1F1",
"z. c None",
/* pixels */
"z.z.z.z.z.z.z.z.z.z.z.z.z.z.z.z.z.z.z.z.z.z.z.z.z.z.z.z.z.z.z.z.z.z.z.z.z.z.z.z.z.z.z.z.z.z.z.z.",
"z.z.z.z.z.z.z.z.z.z.z.z.z.z.z.z.z.z.z.z.z.z.z.z.z.z.z.z.z.z.z.z.z.        .     z.z.z.z.z.z.z.z.",
"z.z.z.z.z.z.z.z.z.z.z.z.z.z.z.z.z.z.z.z.z.z.z.z.z.z.z.z.z.z.z.    < 7 8 7 7 @   z.z.z.z.z.z.z.z.",
"z.z.z.z.z.z.z.z.z.z.z.z.z.z.z.z.z.z.z.z.z.z.z.z.z.z.z.z.z.z.z.  v m m m m m < . & & & &     z.z.",
"z.z.z.z.z.z.z.z.z.z.  .                                       , m m m m m m < M s.s.s.s.y   z.z.",
"z.z.z.z.z.z.z.z.    - c J L Q / Q Q Q Q Q Q Q Q Q Q Q Q Q Q 2 1 m m m m m m <               z.z.",
"z.z.z.z.z.z.    z [ ,.,.,.,.,.,.,.,.,.,.,.,.,.,.,.,.,.,.,.,.e 1 m m m m m m < p -.-.-.-.q   z.z.",
"z.z.z.z.z.  - ] ,.,.,.,.,.,.,.,.,.,.,.,.,.,.,.,.,.,.,.,.,.,.e 1 m m m m m m < o y p p p ;   z.z.",
"z.z.z.z.  4 | ,.,.{ H r $ . . . . . . . . . . . . . . . . .   1 m m m m m m < 9 I I I I 9   z.z.",
"z.z.z.  # { ,.,.G       z.z.z.z.z.z.z.z.z.z.z.z.z.z.z.z.z.z.  + m m m m m m < q ........;   z.z.",
"z.z.z.  Q ,.,.x   z.z.z.z.z.z.z.z.z.z.z.z.z.z.z.z.z.z.z.z.z.z.  , k v v v v ,     .   .     z.z.",
"z.z.  - ,.,.(   z.z.z.z.z.z.z.z.z.z.z.z.z.z.z.z.z.z.z.z.z.z.z.z.                z.z.z.z.z.z.z.z.",
"z.z.  D ,.,.w   z.z.z.z.z.z.z.z.z.z.z.z.z.z.z.z.z.z.z.z.z.z.z.z.z.z.z.z.z.z.z.z.z.z.z.z.z.z.z.z.",
"z.z.  ) ,.|   z.z.z.z.z.                                  z.z.z.z.z.z.z.z.z.z.z.z.z.z.z.z.z.z.z.",
"z.z.  ] ,.[   z.z.z.z.z.  A %.%.%.&.%.%.%.&.%.$.%.+.&...    z.z.z.z.z.z.z.z.z.z.z.z.z.z.z.z.z.z.",
"z.z.  ' ,.[   z.z.z.z.z.  &.k.k.k.k.k.k.s.k.k.k.l.l.s.p.  V   z.z.z.z.z.z.z.z.z.z.z.z.z.z.z.z.z.",
"z.z.  ) ,.,.  z.z.z.z.z.. &.k.k.k.k.l.l.k.l.l.l.h.l.l.p.  =.R   z.z.z.z.z.z.z.z.z.  z.z.z.z.z.z.",
"z.z.  G ,.,.t . z.z.z.z.  &.k.l.k.s.l.k.l.l.l.l.l.j.j.p.  =.h.R   z.z.z.z.z.z.z.z.      z.z.z.z.",
"z.z.  2 ,.,.`   z.z.z.z.  &.k.k.l.l.l.l.l.h.l.j.h.j.h.p.  =.h.h.R   z.z.z.z.z.z.  % k %     z.z.",
"z.z.z.  ) ,.,.J     z.z.. &.k.l.k.l.l.l.l.l.h.l.j.h.h.p.  =.h.h.h.R   z.z.z.z.z.  v m m g     z.",
"z.z.z.  - | ,.,./ $       &.l.l.l.l.l.j.j.h.l.h.h.h.h.q.  & = * ; * X   z.z.z.  5 m m m h   z.z.",
"z.z.z.z.  r  .,.,.,._ K . &.l.l.l.l.l.l.h.l.h.h.h.h.h.d.W W ..W W W W   z.z.    b m m m +   z.z.",
"z.z.z.z.z.  3 ] ,.,.,.,.. $.l.j.l.l.l.h.h.h.h.l.h.h.h.h.h.g.a.g.h.g.g.. z.z.  f m m m d   z.z.z.",
"z.z.z.z.z.z.    l (  .,.. &.j.j.h.h.h.j.j.h.h.h.h.h.h.g.h.h.g.g.g.g.g.  z.  @ m m m n .   z.z.z.",
"z.z.z.z.z.z.z.z..     &   &.j.j.h.j.h.h.h.h.h.h.h.h.g.h.g.g.g.g.g.g.g..     j m m m 5   z.z.z.z.",
"z.z.z.z.z.z.z.z.z.z.z.z.  &.j.l.a.+...+.....+.+.+.....+.+.O.+.a.g.g.f.    , m m m v   z.z.z.z.z.",
"z.z.z.z.z.z.z.z.z.z.z.z.  &.h.h.3.X X X X X X X X X X X X X X 9.g.f.f.    v m m m %   z.z.z.z.z.",
"z.z.z.z.z.z.z.z.z.z.z.z.  $.j.h.h.h.h.h.h.h.g.h.g.g.h.g.g.g.g.f.g.f.5.  7 m m m g   z.z.z.z.z.z.",
"z.z.z.z.z.z.z.z.z.z.z.z.  &.h.h.h.h.h.h.h.g.g.g.g.g.g.g.g.g.f.f.f.f.Z . n m m m +   z.z.z.z.z.z.",
"z.z.z.z.z.z.z.z.z.z.z.z.  $.h.h.h.h.g.h.h.g.h.g.g.g.g.g.f.g.f.g.f.>.  g m m m 8   z.z.z.z.z.z.z.",
"z.z.z.z.z.z.z.z.z.z.z.z.  $.g.h.q.P P P F P P F P P S F P S S w.f.y % m m m b     z.z.z.z.z.z.z.",
"z.z.z.z.z.z.z.z.z.z.z.z.  $.h.h.3.u u y y u u u u u u u u u u 0.*.  j m m m <   z.z.z.z.z.z.z.z.",
"z.z.z.z.z.z.z.z.z.z.z.z.  $.h.h.h.g.h.g.g.g.g.g.f.f.f.g.f.f.i.e.; 1 m m m k   z.z.z.z.z.z.z.z.z.",
"z.z.z.z.z.z.z.z.z.z.z.z.  $.g.h.g.h.g.g.g.g.g.f.g.f.f.f.f.f.f.Y   b m m m %   z.z.z.z.z.z.z.z.z.",
"z.z.z.z.z.z.z.z.z.z.z.z.  $.g.g.g.g.g.g.g.f.f.f.f.f.f.f.f.i.1.. d m m m g   z.z.z.z.z.z.z.z.z.z.",
"z.z.z.z.z.z.z.z.z.z.z.z.  $.g.h.8.i i i i i i i u i i 0.f.i.a . n m m n .   z.z.z.z.z.z.z.z.z.z.",
"z.z.z.z.z.z.z.z.z.z.z.z.  $.g.g.9.S S S S S S S S S S e.i.X.  % v m m 6   z.z.z.z.z.z.z.z.z.z.z.",
"z.z.z.z.z.z.z.z.z.z.z.z.  @.g.g.g.f.g.f.f.f.i.f.i.i.i.f.i.0 = >   7 v     z.z.z.z.z.z.z.z.z.z.z.",
"z.z.z.z.z.z.z.z.z.z.z.z.  $.g.g.g.f.f.f.f.f.f.f.f.i.i.i.i.* s 4.E . .   z.z.z.z.z.z.z.z.z.z.z.z.",
"z.z.z.z.z.z.z.z.z.z.z.z.  @.g.f.f.f.f.f.f.f.i.f.i.i.i.i.i.o S 4.<.B     z.z.z.z.z.z.z.z.z.z.z.z.",
"z.z.z.z.z.z.z.z.z.z.z.z.  @.g.f.2.o X o X X X X o o o 6.y.. U #.=   N   z.z.z.z.z.z.z.z.z.z.z.z.",
"z.z.z.z.z.z.z.z.z.z.z.z.  @.f.f.e.~ ~ ~ ~ ~ ~ ~ E E E e.y.  o   > :.r.. z.z.z.z.z.z.z.z.z.z.z.z.",
"z.z.z.z.z.z.z.z.z.z.z.z.  @.f.f.f.i.i.f.i.i.i.i.f.i.i.i.1.  X E r.r.y.. z.z.z.z.z.z.z.z.z.z.z.z.",
"z.z.z.z.z.z.z.z.z.z.z.z.  @.f.f.f.i.f.i.i.i.i.y.i.r.y.r.;.s e.y.r.r.y.  z.z.z.z.z.z.z.z.z.z.z.z.",
"z.z.z.z.z.z.z.z.z.z.z.z.  o.i.f.f.i.i.f.i.i.i.y.i.y.i.r.r.r.y.r.r.r.r.  z.z.z.z.z.z.z.z.z.z.z.z.",
"z.z.z.z.z.z.z.z.z.z.z.z.  S X.X.X.o.X.o.X.X.o.o.o.o.o.o.^ ^ o.o.^ ^ o.  z.z.z.z.z.z.z.z.z.z.z.z.",
"z.z.z.z.z.z.z.z.z.z.z.z.  . .   .     . .     . .   .   .     .   . .   z.z.z.z.z.z.z.z.z.z.z.z.",
"z.z.z.z.z.z.z.z.z.z.z.z.z.z.z.z.z.z.z.z.z.z.z.z.z.z.z.z.z.z.z.z.z.z.z.z.z.z.z.z.z.z.z.z.z.z.z.z."
};
