/* XPM */
const static char*icon_48x48[] = {
/* columns rows colors chars-per-pixel */
"48 48 108 2 ",
"   c #020202",
".  c #060A09",
"X  c #0C0B0B",
"o  c #000E10",
"O  c #001214",
"+  c #0C1312",
"@  c #0F1817",
"#  c #111111",
"$  c #121C1B",
"%  c #1A1919",
"&  c #15201F",
"*  c #002225",
"=  c #00262A",
"-  c #002A2D",
";  c #162222",
":  c #1B2423",
">  c #1A2827",
",  c #003338",
"<  c #232222",
"1  c #282525",
"2  c #2C2827",
"3  c #2B2928",
"4  c #312D2B",
"5  c #21312F",
"6  c #213332",
"7  c #253836",
"8  c #283D3B",
"9  c #353535",
"0  c gray22",
"q  c #00565E",
"w  c #304845",
"e  c #37524F",
"r  c #375350",
"t  c #395653",
"y  c #005D66",
"u  c #006D77",
"i  c #454646",
"p  c #525150",
"a  c #5C5452",
"s  c #585A5B",
"d  c #42635F",
"f  c #61605F",
"g  c #446763",
"h  c #466965",
"j  c #486C68",
"k  c #4C726E",
"l  c #527C77",
"z  c #646160",
"x  c #6D6663",
"c  c #6C6C6C",
"v  c #706562",
"b  c #756A67",
"n  c #746C69",
"m  c #786F6D",
"M  c #77706E",
"N  c #767271",
"B  c #7B7674",
"V  c #857F7D",
"C  c #57837F",
"Z  c #84807E",
"A  c #98857F",
"S  c #5A8883",
"D  c #5D8D88",
"F  c #61928C",
"G  c #669A94",
"H  c #689D97",
"J  c #6DA59F",
"K  c #6FA7A1",
"L  c #72ACA5",
"P  c #77B3AD",
"I  c #78B4AE",
"U  c #7DBCB6",
"Y  c #7FBFB8",
"T  c #8B8B8B",
"R  c #978782",
"E  c #988680",
"W  c #968984",
"Q  c #978E8C",
"!  c #988D8A",
"~  c #96908E",
"^  c #8F9293",
"/  c #929393",
"(  c #9C9493",
")  c #9E9B9A",
"_  c #AAA6A5",
"`  c #B6A7A2",
"'  c #B2A8A5",
"]  c #B6B6B6",
"[  c #CFBFBA",
"{  c #D0BCB6",
"}  c #83C5BE",
"|  c #CFC3BF",
" . c #EAD3CB",
".. c #F0D7CF",
"X. c #E4DEDC",
"o. c #FEDFD5",
"O. c #FDE0D7",
"+. c #FAE3DC",
"@. c #E6E3E2",
"#. c #EEEEEE",
"$. c #F7E7E2",
"%. c #F8E7E1",
"&. c #F6E9E5",
"*. c #F3EDEB",
"=. c #F2F0EF",
"-. c #EFF3F5",
";. c #F1F1F1",
":. c None",
/* pixels */
":.:.:.:.:.:.:.:.:.:.:.:.:.:.:.:.:.:.:.:.:.:.:.:.:.:.:.:.:.:.:.:.:.:.:.:.:.:.:.:.:.:.:.:.:.:.:.:.",
":.:.:.:.:.:.:.:.:.:.:.:.:.:.:.:.:.:.:.:.:.:.:.:.:.:.:.:.:.:.:.:.:.              :.:.:.:.:.:.:.:.",
":.:.:.:.:.:.:.:.:.:.:.:.:.:.:.:.:.:.:.:.:.:.:.:.:.:.:.:.:.:.:.    = , , , , O   :.:.:.:.:.:.:.:.",
":.:.:.:.:.:.:.:.:.:.:.:.:.:.:.:.:.:.:.:.:.:.:.:.:.:.:.:.:.:.:.  y u u u u u = . # # # #     :.:.",
":.:.:.:.:.:.:.:.:.:.  .                                       * u u u u u u = i #.#.#.#.9   :.:.",
":.:.:.:.:.:.:.:.    $ t h l C S C C C C C C C C C C C S C C ; = u u u u u u =           .   :.:.",
":.:.:.:.:.:.    r L } } } } } } } } } } } } } } } } } } } } 6 = u u u u u u = 0 ] ] ] ] 1   :.:.",
":.:.:.:.:.  $ K } } } } } } } } } } } } } } } } } } } } } } 6 - u u u u u u = # 0 0 0 0 %   :.:.",
":.:.:.:.  > U } } P h 7 @ . . . . . . . . . . . . . . . . .   = u u u u u u = : c c c c %   :.:.",
":.:.:.  + P } } g       :.:.:.:.:.:.:.:.:.:.:.:.:.:.:.:.:.:.  O u u u u u u = 1 T T T T %   :.:.",
":.:.:.  C } } e   :.:.:.:.:.:.:.:.:.:.:.:.:.:.:.:.:.:.:.:.:.:.  * q y y y y *     . . . .   :.:.",
":.:.  $ } } D   :.:.:.:.:.:.:.:.:.:.:.:.:.:.:.:.:.:.:.:.:.:.:.:.                :.:.:.:.:.:.:.:.",
":.:.  d } } 5   :.:.:.:.:.:.:.:.:.:.:.:.:.:.:.:.:.:.:.:.:.:.:.:.:.:.:.:.:.:.:.:.:.:.:.:.:.:.:.:.",
":.:.  D } U   :.:.:.:.:.                                  :.:.:.:.:.:.:.:.:.:.:.:.:.:.:.:.:.:.:.",
":.:.  K } L   :.:.:.:.:.  s ^ ^ ^ ^ ^ ^ ^ ^ ^ Q ^ Q / T     :.:.:.:.:.:.:.:.:.:.:.:.:.:.:.:.:.:.",
":.:.  J } L   :.:.:.:.:.  / -.-.-.-.-.-.#.-.-.-.-.#.#.@.  p   :.:.:.:.:.:.:.:.:.:.:.:.:.:.:.:.:.",
":.:.  F } Y . :.:.:.:.:.. / -.-.-.-.;.;.;.;.;.;.;.;.;.@.  _ N   :.:.:.:.:.:.:.:.:.:.:.:.:.:.:.:.",
":.:.  g } } 8   :.:.:.:.  / -.-.-.#.;.-.;.;.;.*.;.*.;.@.  _ *.N   :.:.:.:.:.:.:.:.:.:.:.:.:.:.:.",
":.:.  ; } } H   :.:.:.:.  / -.-.-.;.;.;.;.;.=.;.=.;.*.@.  _ *.*.M   :.:.:.:.:.:.:.:.:.:.:.:.:.:.",
":.:.:.  F } } j     :.:.. / ;.-.;.;.;.;.;.;.*.=.*.*.*.@.  _ *.*.*.N   :.:.:.:.:.:.:.:.:.:.:.:.:.",
":.:.:.  $ U } } S @       / -.;.;.;.;.*.;.*.;.*.*.*.#.X.  + % % % % X   :.:.:.:.:.:.:.:.:.:.:.:.",
":.:.:.:.  7 Y } } } G k   / ;.;.;.;.=.=.*.;.*.;.*.*.*.&.V V V V V T V   :.:.:.:.:.:.:.:.:.:.:.:.",
":.:.:.:.:.  : J } } } } . / ;.=.=.=.*.;.;.*.*.*.*.*.&.*.*.*.&.&.&.&.&.  :.:.:.:.:.:.:.:.:.:.:.:.",
":.:.:.:.:.:.    w D Y } . / =.=.*.;.;.*.*.*.*.*.*.*.*.*.&.&.*.&.&.&.&.X :.:.:.:.:.:.:.:.:.:.:.:.",
":.:.:.:.:.:.:.:..     +   / =.=.=.*.=.*.*.*.*.*.*.*.&.&.*.&.&.&.&.&.&.  :.:.:.:.:.:.:.:.:.:.:.:.",
":.:.:.:.:.:.:.:.:.:.:.:.  / =.=.f : < < : < < < < < < < < < < < ` &.&.. :.:.:.:.:.:.:.:.:.:.:.:.",
":.:.:.:.:.:.:.:.:.:.:.:.  Q *.=.) B B B B B B B N B B B B B B N | $.%.  :.:.:.:.:.:.:.:.:.:.:.:.",
":.:.:.:.:.:.:.:.:.:.:.:.  / *.*.*.*.*.*.&.*.&.*.&.&.&.&.$.&.&.$.&.%.%.X :.:.:.:.:.:.:.:.:.:.:.:.",
":.:.:.:.:.:.:.:.:.:.:.:.  / =.*.*.&.*.*.*.&.&.&.&.&.&.&.&.&.$.&.%.%.%.  :.:.:.:.:.:.:.:.:.:.:.:.",
":.:.:.:.:.:.:.:.:.:.:.:.  / *.&.*.*.*.&.*.&.*.&.&.&.&.$.$.$.$.$.%.$.%.. :.:.:.:.:.:.:.:.:.:.:.:.",
":.:.:.:.:.:.:.:.:.:.:.:.  Q *.*.z 1 1 1 1 1 1 1 1 3 1 1 1 1 1 1 ` $.+.. :.:.:.:.:.:.:.:.:.:.:.:.",
":.:.:.:.:.:.:.:.:.:.:.:.  / *.*.( N N N M N M M M M m m m m m m [ +.+.. :.:.:.:.:.:.:.:.:.:.:.:.",
":.:.:.:.:.:.:.:.:.:.:.:.. ~ *.&.*.&.&.&.&.&.&.&.$.&.$.%.%.+.$.%.+.$.+.. :.:.:.:.:.:.:.:.:.:.:.:.",
":.:.:.:.:.:.:.:.:.:.:.:.  Q *.&.&.&.&.&.&.&.&.&.$.$.%.%.%.%.+.%.+.+.+.. :.:.:.:.:.:.:.:.:.:.:.:.",
":.:.:.:.:.:.:.:.:.:.:.:.  ~ &.*.&.&.&.&.&.&.&.&.$.+.%.%.+.$.$.+.+.+.O.. :.:.:.:.:.:.:.:.:.:.:.:.",
":.:.:.:.:.:.:.:.:.:.:.:.  ~ &.&.x 2 2 2 3 3 2 3 2 2 4 2 2 2 2 2 ` +.o.. :.:.:.:.:.:.:.:.:.:.:.:.",
":.:.:.:.:.:.:.:.:.:.:.:.  Q &.&.( n n n n b b b n n b b n b n b { +.+.. :.:.:.:.:.:.:.:.:.:.:.:.",
":.:.:.:.:.:.:.:.:.:.:.:.  Q &.&.&.&.$.$.$.$.$.%.+.$.$.+.+.+.+.+.+.+.o.. :.:.:.:.:.:.:.:.:.:.:.:.",
":.:.:.:.:.:.:.:.:.:.:.:.  Q &.&.&.$.%.%.$.%.%.%.$.+.$.+.+.+.+.O.o.+.O.  :.:.:.:.:.:.:.:.:.:.:.:.",
":.:.:.:.:.:.:.:.:.:.:.:.  ! &.&.%.%.%.$.%.+.+.%.+.+.+.+.+.+.O.+.+.o.O.. :.:.:.:.:.:.:.:.:.:.:.:.",
":.:.:.:.:.:.:.:.:.:.:.:.  ! &.$.x 4 4 4 4 4 4 4 4 4 4 4 4  .+.+.O.O.O.  :.:.:.:.:.:.:.:.:.:.:.:.",
":.:.:.:.:.:.:.:.:.:.:.:.  ! %.%.Q v v x v v v v v v v v v ..O.O.O.O.O.. :.:.:.:.:.:.:.:.:.:.:.:.",
":.:.:.:.:.:.:.:.:.:.:.:.  ! $.%.$.+.$.+.$.+.+.+.+.O.+.O.O.O.O.O.O.O.o.  :.:.:.:.:.:.:.:.:.:.:.:.",
":.:.:.:.:.:.:.:.:.:.:.:.  ! $.+.$.+.+.+.%.+.+.+.+.+.+.O.+.O.O.O.O.O.o.. :.:.:.:.:.:.:.:.:.:.:.:.",
":.:.:.:.:.:.:.:.:.:.:.:.  ! +.%.+.+.+.$.+.O.+.O.O.O.O.O.o.o.o.o.o.O.o.  :.:.:.:.:.:.:.:.:.:.:.:.",
":.:.:.:.:.:.:.:.:.:.:.:.  a W W W R W W W W W E W W W W E A E E A A A   :.:.:.:.:.:.:.:.:.:.:.:.",
":.:.:.:.:.:.:.:.:.:.:.:.  . .   .     . .   .     .     .     .   . .   :.:.:.:.:.:.:.:.:.:.:.:.",
":.:.:.:.:.:.:.:.:.:.:.:.:.:.:.:.:.:.:.:.:.:.:.:.:.:.:.:.:.:.:.:.:.:.:.:.:.:.:.:.:.:.:.:.:.:.:.:."
};
