/* XPM */
const static char*icon_64x64[] = {
/* columns rows colors chars-per-pixel */
"64 64 155 2 ",
"   c #000000",
".  c #010708",
"X  c #030B0B",
"o  c #0A0A0A",
"O  c #000F10",
"+  c #001213",
"@  c #0D1312",
"#  c #001618",
"$  c #001A1C",
"%  c #111111",
"&  c #181815",
"*  c #141E1C",
"=  c #1D1C1B",
"-  c #221E1D",
";  c #15201F",
":  c #001E21",
">  c #002427",
",  c #00292C",
"<  c #1E2D2B",
"1  c #182423",
"2  c #002D32",
"3  c #003035",
"4  c #003338",
"5  c #00393E",
"6  c #252424",
"7  c #292827",
"8  c #2F2E2B",
"9  c #292423",
"0  c #332F2E",
"q  c #20302E",
"w  c #33312D",
"e  c #223432",
"r  c #293E3C",
"t  c #333232",
"y  c #3E3937",
"u  c #3F3E3E",
"i  c #403A37",
"p  c #433F3E",
"a  c #2C423F",
"s  c #45433A",
"d  c #003D43",
"f  c #004147",
"g  c #00454B",
"h  c #00484F",
"j  c #004A51",
"k  c #005057",
"l  c #00555D",
"z  c #2F4644",
"x  c #304946",
"c  c #334D4A",
"v  c #36524F",
"b  c #395652",
"n  c #005B64",
"m  c #00636C",
"M  c #006770",
"N  c #006D77",
"B  c #4B4940",
"V  c #514845",
"C  c #57554A",
"Z  c #5E5A59",
"A  c #5D5350",
"S  c #665D5B",
"D  c #40615D",
"F  c #476B67",
"G  c #496E6A",
"H  c #436562",
"J  c #4A706C",
"K  c #4F7672",
"L  c #537C77",
"P  c #7C706B",
"I  c #7E7471",
"U  c #7F7977",
"Y  c #7F7A79",
"T  c #827F6F",
"R  c #84746E",
"E  c #807874",
"W  c #887974",
"Q  c #887E7C",
"!  c #57837E",
"~  c #89817E",
"^  c #94837D",
"/  c #94917E",
"(  c #5C8B86",
")  c #5F8F8A",
"_  c #60908B",
"`  c #679B96",
"'  c #689D97",
"]  c #699E99",
"[  c #659792",
"{  c #6BA19B",
"}  c #6FA8A2",
"|  c #72ABA5",
" . c #75AFA9",
".. c #76B2AC",
"X. c #78B4AE",
"o. c #79B6B0",
"O. c #7CBBB4",
"+. c #7FC0B9",
"@. c #878281",
"#. c #8C8B8B",
"$. c #8B8685",
"%. c #978986",
"&. c #978F8B",
"*. c #9E8E89",
"=. c #908583",
"-. c #9C928F",
";. c #9D9A86",
":. c #929292",
">. c #9E9592",
",. c gray61",
"<. c #A99994",
"1. c #B49E96",
"2. c #B49F98",
"3. c #BAA49D",
"4. c #B4B09A",
"5. c #A0A0A0",
"6. c #AFA5A2",
"7. c #B5A6A1",
"8. c #B8A6A1",
"9. c #B7A8A3",
"0. c #BFADA7",
"q. c #BDAEA9",
"w. c #BAB2AF",
"e. c #B9B9B9",
"r. c #B6B3B3",
"t. c #C7B4AE",
"y. c #CDBAB3",
"u. c #C4BEBC",
"i. c #CABCB8",
"p. c #83C5BE",
"a. c #CCC7AE",
"s. c #D4C4BF",
"d. c #C8C8C8",
"f. c #C6C2C1",
"g. c #DECDC7",
"h. c #CFD3D5",
"j. c #D1D1D1",
"k. c #E4D1CC",
"l. c #E9D7D1",
"z. c #EFD8D2",
"x. c #E4DEDC",
"c. c #F3DBD4",
"v. c #FEDFD5",
"b. c #E6E1C4",
"n. c #FDE0D7",
"m. c #F5E3DE",
"M. c #FAE4DD",
"N. c #F5E6E1",
"B. c #F8E7E1",
"V. c #F6E9E5",
"C. c #F3EDEB",
"Z. c #F2F0EF",
"A. c #EFF3F5",
"S. c #F1F1F1",
"D. c None",
/* pixels */
"D.D.D.D.D.D.D.D.D.D.D.D.D.D.D.D.D.D.D.D.D.D.D.D.D.D.D.D.D.D.D.D.D.D.D.D.D.D.D.D.D.D.D.D.D.D.D.D.D.D.D.D.D.D.D.D.D.D.D.D.D.D.D.D.",
"D.D.D.D.D.D.D.D.D.D.D.D.D.D.D.D.D.D.D.D.D.D.D.D.D.D.D.D.D.D.D.D.D.D.D.D.D.D.D.D.D.D.D.D.D.D.D.D.D.D.D.D.D.D.D.D.D.D.D.D.D.D.D.D.",
"D.D.D.D.D.D.D.D.D.D.D.D.D.D.D.D.D.D.D.D.D.D.D.D.D.D.D.D.D.D.D.D.D.D.D.D.D.D.D.D.D.D.D.                    D.D.D.D.D.D.D.D.D.D.D.",
"D.D.D.D.D.D.D.D.D.D.D.D.D.D.D.D.D.D.D.D.D.D.D.D.D.D.D.D.D.D.D.D.D.D.D.D.D.D.D.D.D.    X 4 f f f f f f X                 D.D.D.D.",
"D.D.D.D.D.D.D.D.D.D.D.D.D.D.D.D.D.D.D.D.D.D.D.D.D.D.D.D.D.D.D.D.D.D.D.D.D.D.D.D.D.  X m N N N N N N N O                   D.D.D.",
"D.D.D.D.D.D.D.D.D.D.D.D.D.D.D.D.                                                    j N N N N N N N N O o d.d.d.d.d.f.    D.D.D.",
"D.D.D.D.D.D.D.D.D.D.D.D.                                                            n N N N N N N N N O o :.:.:.:.:.#.    D.D.D.",
"D.D.D.D.D.D.D.D.D.D.      * b L [ | | | | | | | | | | | | | | | | | | | | | | | r   n N N N N N N N N O                   D.D.D.",
"D.D.D.D.D.D.D.D.      a ] p.p.p.p.p.p.p.p.p.p.p.p.p.p.p.p.p.p.p.p.p.p.p.p.p.p.p.z   n N N N N N N N N O o 5.,.,.5.,.,.    D.D.D.",
"D.D.D.D.D.D.D.    1 ] p.p.p.p.p.p.p.p.p.p.p.p.p.p.p.p.p.p.p.p.p.p.p.p.p.p.p.p.p.z   n N N N N N N N N O o 5.5.5.5.5.,.    D.D.D.",
"D.D.D.D.D.D.    z O.p.p.p.p.p.+.| ` _ _ _ _ _ _ _ _ _ _ _ _ _ _ _ _ _ _ _ _ _ _ e   n N N N N N N N N O                   D.D.D.",
"D.D.D.D.D.    x p.p.p.p.O.F q .                                                     n N N N N N N N N O . :.#.:.:.:.#.    D.D.D.",
"D.D.D.D.D.  e p.p.p.p.J o                                                           g N N N N N N N N O o e.e.e.e.e.r.    D.D.D.",
"D.D.D.D.  .  .p.p.p.x       D.D.D.D.D.D.D.D.D.D.D.D.D.D.D.D.D.D.D.D.D.D.D.D.D.D.D.  X n N N N N N N N O                   D.D.D.",
"D.D.D.D.  D p.p.p.D     D.D.D.D.D.D.D.D.D.D.D.D.D.D.D.D.D.D.D.D.D.D.D.D.D.D.D.D.D.D.  . , 4 4 4 4 4 4 .                 D.D.D.D.",
"D.D.D.    o.p.p.|     D.D.D.D.D.D.D.D.D.D.D.D.D.D.D.D.D.D.D.D.D.D.D.D.D.D.D.D.D.D.D.D.                    D.D.D.D.D.D.D.D.D.D.D.",
"D.D.D.  e p.p.p.v   D.D.D.D.D.D.D.D.D.D.D.D.D.D.D.D.D.D.D.D.D.D.D.D.D.D.D.D.D.D.D.D.D.D.D.D.D.D.D.D.D.D.D.D.D.D.D.D.D.D.D.D.D.D.",
"D.D.D.  J p.p.p.@   D.D.D.D.D.D.                                              D.D.D.D.D.D.D.D.D.D.D.D.D.D.D.D.D.D.D.D.D.D.D.D.D.",
"D.D.    ( p.p...    D.D.D.D.D.D.                                                D.D.D.D.D.D.D.D.D.D.D.D.D.D.D.D.D.D.D.D.D.D.D.D.",
"D.D.    ] p.p.]     D.D.D.D.D.D.  6 h.h.h.h.h.h.j.h.h.h.j.h.j.j.j.j.j.j.j.t       D.D.D.D.D.D.D.D.D.D.D.D.D.D.D.D.D.D.D.D.D.D.D.",
"D.D.    ` p.p.{     D.D.D.D.D.D.  6 A.A.A.A.A.A.A.A.A.A.S.S.S.S.S.S.Z.S.C.u   0     D.D.D.D.D.D.D.D.D.D.D.D.D.D.D.D.D.D.D.D.D.D.",
"D.D.    ) p.p.X.    D.D.D.D.D.D.  q A.A.A.A.A.A.A.S.S.S.S.S.S.S.S.Z.S.C.S.u   j.t     D.D.D.D.D.D.D.D.D.D.D.D.D.D.D.D.D.D.D.D.D.",
"D.D.D.  J p.p.p.*   D.D.D.D.D.D.  7 A.A.A.A.A.A.A.S.S.S.A.S.S.S.C.S.Z.C.S.u   x.x.t     D.D.D.D.D.D.D.D.D.D.D.    D.D.D.D.D.D.D.",
"D.D.D.  r p.p.p.D   D.D.D.D.D.D.  6 A.A.A.A.S.S.S.S.S.S.S.S.S.S.S.S.C.S.C.u   x.C.x.t     D.D.D.D.D.D.D.D.D.          D.D.D.D.D.",
"D.D.D.  o O.p.p.X.X   D.D.D.D.D.  6 A.A.A.S.A.A.S.S.S.S.S.S.S.S.S.C.C.S.C.u   x.C.C.x.t     D.D.D.D.D.D.D.D.  : n $       D.D.D.",
"D.D.D.    G p.p.p.!     D.D.D.D.  7 A.A.S.S.S.S.S.S.S.S.S.C.C.C.S.C.S.C.C.u   x.C.C.C.x.t     D.D.D.D.D.D.    n N N j X     D.D.",
"D.D.D.D.  @ O.p.p.p.K       D.D.  6 A.A.S.A.S.S.S.S.S.S.S.S.S.C.C.S.C.C.C.y   r.s.e.e.s.w.7     D.D.D.D.    3 N N N N m .   D.D.",
"D.D.D.D.    a p.p.p.p.] <         6 S.S.S.S.S.S.C.S.S.C.C.S.C.C.C.C.C.C.C.&                     D.D.D.D.  X m N N N N 5     D.D.",
"D.D.D.D.D.    H p.p.p.p.p.| J b . 6 S.S.S.S.S.C.S.C.S.C.S.C.C.S.C.C.C.C.C.$.Z Z Z Z Z Z Z Z p     D.D.    f N N N N m .   D.D.D.",
"D.D.D.D.D.D.    v p.p.p.p.p.p.p.o 6 S.S.S.S.S.S.S.S.C.S.S.C.C.S.C.C.C.C.C.C.C.C.C.V.V.V.V.V.6.    D.D.  + N N N N N ,   D.D.D.D.",
"D.D.D.D.D.D.D.    ; ( p.p.p.p.p.. 6 S.S.S.S.S.S.C.C.S.C.C.C.C.C.C.C.C.V.V.C.V.V.V.C.V.C.V.V.6.    D.    k N N N N l     D.D.D.D.",
"D.D.D.D.D.D.D.D.      e K ..p.p.o 6 S.S.S.C.C.C.C.S.C.C.C.C.C.C.C.C.C.C.C.C.V.C.C.V.V.V.V.V.6.    D.  > N N N N N $   D.D.D.D.D.",
"D.D.D.D.D.D.D.D.D.D.        @ <   6 S.S.S.C.S.C.S.C.C.C.C.C.C.C.C.V.C.V.C.V.C.V.V.V.V.V.V.V.6.        n N N N N g     D.D.D.D.D.",
"D.D.D.D.D.D.D.D.D.D.D.D.          6 C.S.C.S.C.S.C.C.C.C.C.C.C.C.V.C.V.C.V.C.V.V.V.V.V.V.V.V.6.      4 N N N N M X   D.D.D.D.D.D.",
"D.D.D.D.D.D.D.D.D.D.D.D.D.D.D.D.  7 S.C.S.C.#.& = = = = = = = = & = = = = = = = & >.V.V.V.V.7.    X M N N N N 4     D.D.D.D.D.D.",
"D.D.D.D.D.D.D.D.D.D.D.D.D.D.D.D.  7 C.S.C.C.$.% % % % % % % % % % % % % % % % % % &.V.B.V.V.6.    h N N N N m .   D.D.D.D.D.D.D.",
"D.D.D.D.D.D.D.D.D.D.D.D.D.D.D.D.  6 C.S.C.C.C.C.C.C.C.V.V.C.V.C.V.C.V.V.V.V.V.V.V.B.V.V.B.B.I   # N N N N N >   D.D.D.D.D.D.D.D.",
"D.D.D.D.D.D.D.D.D.D.D.D.D.D.D.D.  7 C.C.C.C.C.C.C.C.C.C.C.V.C.V.V.V.V.V.V.V.V.V.V.V.B.B.B.m.&   l N N N N l     D.D.D.D.D.D.D.D.",
"D.D.D.D.D.D.D.D.D.D.D.D.D.D.D.D.  6 C.C.C.C.C.C.C.V.V.C.V.C.C.V.C.V.V.V.V.V.V.V.V.B.B.V.B.Q   , N N N N N #   D.D.D.D.D.D.D.D.D.",
"D.D.D.D.D.D.D.D.D.D.D.D.D.D.D.D.  6 C.C.C.C.C.V.C.C.C.V.C.V.V.V.V.V.V.V.B.V.V.B.B.B.B.B.k.% . m N N N N f     D.D.D.D.D.D.D.D.D.",
"D.D.D.D.D.D.D.D.D.D.D.D.D.D.D.D.  7 C.C.C.C.e.~ @.@.@.@.@.@.~ ~ @.@.~ Q ~ ~ ~ ~ Q i.B.B.S   5 N N N N M X   D.D.D.D.D.D.D.D.D.D.",
"D.D.D.D.D.D.D.D.D.D.D.D.D.D.D.D.  6 C.V.C.V.E                                     =.B.y.  O M N N N N 2     D.D.D.D.D.D.D.D.D.D.",
"D.D.D.D.D.D.D.D.D.D.D.D.D.D.D.D.  6 C.C.C.C.f.<.>.>.>.>.>.>.>.>.>.>.>.>.>.-.<.-.>.f.B.y   j N N N N n .   D.D.D.D.D.D.D.D.D.D.D.",
"D.D.D.D.D.D.D.D.D.D.D.D.D.D.D.D.  7 C.C.V.V.C.C.V.V.C.V.V.V.V.V.B.V.B.B.B.B.m.B.M.M.<.  $ N N N N N :   D.D.D.D.D.D.D.D.D.D.D.D.",
"D.D.D.D.D.D.D.D.D.D.D.D.D.D.D.D.  6 V.C.V.V.V.C.V.V.V.V.V.V.V.B.V.B.B.B.B.B.B.B.M.m.=   l N N N N k     D.D.D.D.D.D.D.D.D.D.D.D.",
"D.D.D.D.D.D.D.D.D.D.D.D.D.D.D.D.  6 C.V.C.V.V.V.V.V.V.V.V.V.B.V.B.B.B.B.B.B.B.M.M.R   2 N N N N N +   D.D.D.D.D.D.D.D.D.D.D.D.D.",
"D.D.D.D.D.D.D.D.D.D.D.D.D.D.D.D.  6 C.V.V.V.V.N.N.N.N.B.m.B.m.m.m.m.m.m.B.B.M.B.g.o X m N N N N d     D.D.D.D.D.D.D.D.D.D.D.D.D.",
"D.D.D.D.D.D.D.D.D.D.D.D.D.D.D.D.  6 C.V.V.V.U                           k.M.B.M.y   d N N N N m .   D.D.D.D.D.D.D.D.D.D.D.D.D.D.",
"D.D.D.D.D.D.D.D.D.D.D.D.D.D.D.D.  6 V.V.V.V.-.0 0 0 0 0 0 0 0 0 0 0 0 w l.M.M.%.  . j N N N N 2   D.D.D.D.D.D.D.D.D.D.D.D.D.D.D.",
"D.D.D.D.D.D.D.D.D.D.D.D.D.D.D.D.  6 V.V.V.V.V.V.B.V.B.B.B.B.B.B.B.M.B.M.m.M.M.&       $ n N n     D.D.D.D.D.D.D.D.D.D.D.D.D.D.D.",
"D.D.D.D.D.D.D.D.D.D.D.D.D.D.D.D.  9 V.V.V.V.B.V.V.B.B.B.B.B.B.B.B.M.B.M.M.M.M.o . 4.w     2 $     D.D.D.D.D.D.D.D.D.D.D.D.D.D.D.",
"D.D.D.D.D.D.D.D.D.D.D.D.D.D.D.D.  6 V.V.V.V.B.B.B.V.B.B.B.B.M.B.B.M.M.M.M.M.M.  & l.b./ &         D.D.D.D.D.D.D.D.D.D.D.D.D.D.D.",
"D.D.D.D.D.D.D.D.D.D.D.D.D.D.D.D.  9 V.B.B.V.B.V.B.B.B.B.B.M.M.M.M.M.M.M.M.M.z.  8 b.b.b.;.        D.D.D.D.D.D.D.D.D.D.D.D.D.D.D.",
"D.D.D.D.D.D.D.D.D.D.D.D.D.D.D.D.  6 B.V.B.V.7.S S S S S S S S S S S S S z.M.t.  s b.a.s     9     D.D.D.D.D.D.D.D.D.D.D.D.D.D.D.",
"D.D.D.D.D.D.D.D.D.D.D.D.D.D.D.D.  6 V.B.B.B.E                           k.M.*.  C ~ o   o ^ 2.    D.D.D.D.D.D.D.D.D.D.D.D.D.D.D.",
"D.D.D.D.D.D.D.D.D.D.D.D.D.D.D.D.  6 B.V.B.B.g.q.q.q.q.q.q.q.q.q.0.t.9.t.n.n.P         C c.n.2.    D.D.D.D.D.D.D.D.D.D.D.D.D.D.D.",
"D.D.D.D.D.D.D.D.D.D.D.D.D.D.D.D.  9 B.B.B.M.B.M.B.M.M.M.M.M.M.M.M.M.M.n.M.n.A     - y.n.n.n.2.    D.D.D.D.D.D.D.D.D.D.D.D.D.D.D.",
"D.D.D.D.D.D.D.D.D.D.D.D.D.D.D.D.  6 B.B.B.B.B.M.M.B.M.M.M.M.M.n.M.n.M.n.n.M.i . W n.v.n.v.v.1.    D.D.D.D.D.D.D.D.D.D.D.D.D.D.D.",
"D.D.D.D.D.D.D.D.D.D.D.D.D.D.D.D.  9 B.B.M.B.M.B.M.M.M.M.M.M.M.M.M.M.n.M.n.n.<.c.n.n.n.v.v.v.1.    D.D.D.D.D.D.D.D.D.D.D.D.D.D.D.",
"D.D.D.D.D.D.D.D.D.D.D.D.D.D.D.D.  9 B.B.B.M.m.M.M.M.M.M.n.M.n.M.n.n.M.v.n.n.v.v.n.v.v.v.v.v.1.    D.D.D.D.D.D.D.D.D.D.D.D.D.D.D.",
"D.D.D.D.D.D.D.D.D.D.D.D.D.D.D.D.  & 9.9.9.9.8.7.9.7.8.8.8.8.8.8.3.8.3.3.3.8.3.3.3.3.3.3.3.3.R     D.D.D.D.D.D.D.D.D.D.D.D.D.D.D.",
"D.D.D.D.D.D.D.D.D.D.D.D.D.D.D.D.                                                                  D.D.D.D.D.D.D.D.D.D.D.D.D.D.D.",
"D.D.D.D.D.D.D.D.D.D.D.D.D.D.D.D.                                                                D.D.D.D.D.D.D.D.D.D.D.D.D.D.D.D.",
"D.D.D.D.D.D.D.D.D.D.D.D.D.D.D.D.D.D.D.D.D.D.D.D.D.D.D.D.D.D.D.D.D.D.D.D.D.D.D.D.D.D.D.D.D.D.D.D.D.D.D.D.D.D.D.D.D.D.D.D.D.D.D.D."
};
